<?xml version="1.0" standalone="yes"?>
<svg xmlns="http://www.w3.org/2000/svg" width="100" height="77">
<path style="fill:#fefefe; stroke:none;" d="M0 0L0 77L100 77L100 0L0 0z"/>
<path style="fill:#ebd8ab; stroke:none;" d="M11 1L12 2L11 1M88 1L89 2L88 1z"/>
<path style="fill:#ddbc70; stroke:none;" d="M10.6667 2.33334L11.3333 2.66666L10.6667 2.33334z"/>
<path style="fill:#cc9c2a; stroke:none;" d="M88 2C85.7593 16.8942 63.8812 25.7315 50 25.7315C45.2411 25.7315 39.707 22.6375 35 21.5764C24.239 19.1504 14.1374 14.9829 12 3C1.63682 6.16787 -1.09204 23.0013 5.55787 30.8117C10.2204 36.2879 16.5423 36.1982 23 35L23 34C12.1113 30.4269 5.24226 24.8583 9 13C17.0633 23.5759 36.5141 31.2372 50 31.2207C54.5427 31.2151 59.4612 28.1212 64 27.2608C74.4234 25.285 84.6836 23.2199 90 13L91 13C94.2748 24.769 87.7006 30.3563 77 34L77 35C98.9851 40.2318 103.551 13.218 88 2z"/>
<path style="fill:#ddbc70; stroke:none;" d="M89 2L90 3L89 2M90 3L91 4L90 3z"/>
<path style="fill:#ebd8ab; stroke:none;" d="M87 4L88 5L87 4z"/>
<path style="fill:#ddbc70; stroke:none;" d="M91 4L92 5L91 4M7 5L8 6L7 5z"/>
<path style="fill:#ebd8ab; stroke:none;" d="M12 5L13 6L12 5z"/>
<path style="fill:#ddbc70; stroke:none;" d="M87 5L88 6L87 5z"/>
<path style="fill:#ebd8ab; stroke:none;" d="M92 5L93 6L92 5z"/>
<path style="fill:#ddbc70; stroke:none;" d="M6 6L7 7L6 6M12 6L13 7L12 6z"/>
<path style="fill:#ebd8ab; stroke:none;" d="M93 6L94 7L93 6M5 7L6 8L5 7M86 7L87 8L86 7M13 8L14 9L13 8z"/>
<path style="fill:#ddbc70; stroke:none;" d="M86 8L87 9L86 8M94 8L95 9L94 8M4 9L5 10L4 9z"/>
<path style="fill:#ebd8ab; stroke:none;" d="M95 9L96 10L95 9M14 10L15 11L14 10z"/>
<path style="fill:#ddbc70; stroke:none;" d="M85 10L86 11L85 10M95 10L96 11L95 10M3 11L4 12L3 11z"/>
<path style="fill:#ebd8ab; stroke:none;" d="M84 11L85 12L84 11M96 11L97 12L96 11z"/>
<path style="fill:#ddbc70; stroke:none;" d="M15 12L16 13L15 12M96 12L97 13L96 12z"/>
<path style="fill:#ebd8ab; stroke:none;" d="M2 13L3 14L2 13M9 13L10 14L9 13z"/>
<path style="fill:#ddbc70; stroke:none;" d="M16 13L17 14L16 13M83 13L84 14L83 13z"/>
<path style="fill:#ebd8ab; stroke:none;" d="M90 13L91 14L90 13z"/>
<path style="fill:#ddbc70; stroke:none;" d="M2 14L3 15L2 14z"/>
<path style="fill:#ebd8ab; stroke:none;" d="M8 14L9 15L8 14z"/>
<path style="fill:#ddbc70; stroke:none;" d="M17 14L18 15L17 14M89 14L90 15L89 14M91 14L92 15L91 14z"/>
<path style="fill:#ebd8ab; stroke:none;" d="M97 14L98 15L97 14M10 15L11 16L10 15z"/>
<path style="fill:#ddbc70; stroke:none;" d="M18 15L19 16L18 15z"/>
<path style="fill:#ebd8ab; stroke:none;" d="M80 15L81 16L80 15M91 15L92 16L91 15z"/>
<path style="fill:#ddbc70; stroke:none;" d="M97 15L98 16L97 15M11 16L12 17L11 16z"/>
<path style="fill:#ebd8ab; stroke:none;" d="M20 16L21 17L20 16z"/>
<path style="fill:#ddbc70; stroke:none;" d="M79 16L80 17L79 16z"/>
<path style="fill:#ebd8ab; stroke:none;" d="M88 16L89 17L88 16M1 17L1 23L2 23L1 17z"/>
<path style="fill:#ddbc70; stroke:none;" d="M7 17L8 18L7 17M12 17L13 18L12 17z"/>
<path style="fill:#ebd8ab; stroke:none;" d="M22 17L23 18L22 17M77 17L78 18L77 17M87 17L88 18L87 17M7 18L7 23L8 23L7 18z"/>
<path style="fill:#ddbc70; stroke:none;" d="M13 18L14 19L13 18z"/>
<path style="fill:#ebd8ab; stroke:none;" d="M24 18L25 19L24 18M74 18L75 19L74 18z"/>
<path style="fill:#ddbc70; stroke:none;" d="M75 18L76 19L75 18z"/>
<path style="fill:#ebd8ab; stroke:none;" d="M86 18L87 19L86 18z"/>
<path style="fill:#ddbc70; stroke:none;" d="M92 18L92 22L93 22L92 18M14 19L15 20L14 19M26 19L27 20L26 19z"/>
<path style="fill:#ebd8ab; stroke:none;" d="M27.6667 19.3333L28.3333 19.6667L27.6667 19.3333M71 19L72 20L71 19z"/>
<path style="fill:#ddbc70; stroke:none;" d="M72 19L73 20L72 19z"/>
<path style="fill:#ebd8ab; stroke:none;" d="M85 19L86 20L85 19z"/>
<path style="fill:#ddbc70; stroke:none;" d="M15 20L16 21L15 20M30 20L31 21L30 20z"/>
<path style="fill:#ebd8ab; stroke:none;" d="M31.6667 20.3333L32.3333 20.6667L31.6667 20.3333M67 20L68 21L67 20z"/>
<path style="fill:#ddbc70; stroke:none;" d="M68.6667 20.3333L69.3333 20.6667L68.6667 20.3333z"/>
<path style="fill:#ebd8ab; stroke:none;" d="M84 20L85 21L84 20M16 21L17 22L16 21z"/>
<path style="fill:#ddbc70; stroke:none;" d="M34.6667 21.3333L35.3333 21.6667L34.6667 21.3333z"/>
<path style="fill:#ebd8ab; stroke:none;" d="M36 21L37 22L36 21M62.6667 21.3333L63.3333 21.6667L62.6667 21.3333z"/>
<path style="fill:#ddbc70; stroke:none;" d="M64 21L65 22L64 21M82 21L83 22L82 21M18 22L19 23L18 22M39 22L40 23L39 22z"/>
<path style="fill:#ebd8ab; stroke:none;" d="M40 22L41 23L40 22M59 22L60 23L59 22z"/>
<path style="fill:#ddbc70; stroke:none;" d="M60 22L61 23L60 22z"/>
<path style="fill:#ebd8ab; stroke:none;" d="M81 22L82 23L81 22z"/>
<path style="fill:#ddbc70; stroke:none;" d="M7 23L8 24L7 23M20 23L21 24L20 23M42 23L43 24L42 23z"/>
<path style="fill:#ebd8ab; stroke:none;" d="M43 23L44 24L43 23M56 23L57 24L56 23z"/>
<path style="fill:#ddbc70; stroke:none;" d="M57 23L58 24L57 23z"/>
<path style="fill:#ebd8ab; stroke:none;" d="M79 23L80 24L79 23M22 24L23 25L22 24z"/>
<path style="fill:#ddbc70; stroke:none;" d="M23 24L24 25L23 24z"/>
<path style="fill:#ebd8ab; stroke:none;" d="M45 24L46 25L45 24M53 24L54 25L53 24z"/>
<path style="fill:#ddbc70; stroke:none;" d="M54 24L55 25L54 24M76 24L77 25L76 24z"/>
<path style="fill:#ebd8ab; stroke:none;" d="M77 24L78 25L77 24M91 24L92 25L91 24z"/>
<path style="fill:#ddbc70; stroke:none;" d="M97 24L98 25L97 24M2 25L3 26L2 25M8 25L9 26L8 25z"/>
<path style="fill:#ebd8ab; stroke:none;" d="M25 25L26 26L25 25z"/>
<path style="fill:#ddbc70; stroke:none;" d="M26 25L27 26L26 25M47 25L48 26L47 25z"/>
<path style="fill:#ebd8ab; stroke:none;" d="M51 25L52 26L51 25z"/>
<path style="fill:#ddbc70; stroke:none;" d="M52 25L53 26L52 25M72 25L73 26L72 25z"/>
<path style="fill:#ebd8ab; stroke:none;" d="M73.6667 25.3333L74.3333 25.6667L73.6667 25.3333M97 25L98 26L97 25M2 26L3 27L2 26M9 26L10 27L9 26M29 26L30 27L29 26z"/>
<path style="fill:#ddbc70; stroke:none;" d="M30.6667 26.3333L31.3333 26.6667L30.6667 26.3333M49.6667 26.3333L50.3333 26.6667L49.6667 26.3333M68 26L69 27L68 26z"/>
<path style="fill:#ebd8ab; stroke:none;" d="M69.6667 26.3333L70.3333 26.6667L69.6667 26.3333z"/>
<path style="fill:#ddbc70; stroke:none;" d="M90 26L91 27L90 26z"/>
<path style="fill:#ebd8ab; stroke:none;" d="M10 27L11 28L10 27M34.6667 27.3333L35.3333 27.6667L34.6667 27.3333z"/>
<path style="fill:#ddbc70; stroke:none;" d="M36.6667 27.3333L37.3333 27.6667L36.6667 27.3333M62.6667 27.3333L63.3333 27.6667L62.6667 27.3333z"/>
<path style="fill:#ebd8ab; stroke:none;" d="M64.6667 27.3333L65.3333 27.6667L64.6667 27.3333M89 27L90 28L89 27z"/>
<path style="fill:#ddbc70; stroke:none;" d="M96 27L97 28L96 27z"/>
<path style="fill:#ebd8ab; stroke:none;" d="M3 28L4 29L3 28M11 28L12 29L11 28M39 28L40 29L39 28z"/>
<path style="fill:#ddbc70; stroke:none;" d="M40 28L41 29L40 28M58 28L59 29L58 28z"/>
<path style="fill:#ebd8ab; stroke:none;" d="M59.6667 28.3333L60.3333 28.6667L59.6667 28.3333M88 28L89 29L88 28z"/>
<path style="fill:#ddbc70; stroke:none;" d="M4 29L5 30L4 29M12 29L13 30L12 29z"/>
<path style="fill:#ebd8ab; stroke:none;" d="M42 29L43 30L42 29z"/>
<path style="fill:#ddbc70; stroke:none;" d="M43.6667 29.3333L44.3333 29.6667L43.6667 29.3333M55 29L56 30L55 29z"/>
<path style="fill:#ebd8ab; stroke:none;" d="M56 29L57 30L56 29z"/>
<path style="fill:#ddbc70; stroke:none;" d="M87 29L88 30L87 29z"/>
<path style="fill:#ebd8ab; stroke:none;" d="M95 29L96 30L95 29M14 30L15 31L14 30M45 30L46 31L45 30z"/>
<path style="fill:#ddbc70; stroke:none;" d="M46 30L47 31L46 30M53 30L54 31L53 30z"/>
<path style="fill:#ebd8ab; stroke:none;" d="M54 30L55 31L54 30M85 30L86 31L85 30z"/>
<path style="fill:#ddbc70; stroke:none;" d="M94 30L95 31L94 30M15 31L16 32L15 31z"/>
<path style="fill:#ebd8ab; stroke:none;" d="M16 31L17 32L16 31M47 31L48 32L47 31z"/>
<path style="fill:#ddbc70; stroke:none;" d="M48 31L49 32L48 31M51 31L52 32L51 31z"/>
<path style="fill:#ebd8ab; stroke:none;" d="M52 31L53 32L52 31M83 31L84 32L83 31z"/>
<path style="fill:#ddbc70; stroke:none;" d="M93 31L94 32L93 31M18 32L19 33L18 32z"/>
<path style="fill:#ebd8ab; stroke:none;" d="M19 32L20 33L19 32z"/>
<path style="fill:#ddbc70; stroke:none;" d="M49 32L50 33L49 32z"/>
<path style="fill:#ebd8ab; stroke:none;" d="M50 32L51 33L50 32M80 32L81 33L80 32z"/>
<path style="fill:#ddbc70; stroke:none;" d="M81 32L82 33L81 32M92 32L93 33L92 32M8 33L9 34L8 33M21 33L22 34L21 33z"/>
<path style="fill:#ebd8ab; stroke:none;" d="M22.6667 33.3333L23.3333 33.6667L22.6667 33.3333M76.6667 33.3333L77.3333 33.6667L76.6667 33.3333z"/>
<path style="fill:#ddbc70; stroke:none;" d="M78 33L79 34L78 33M91 33L92 34L91 33z"/>
<path style="fill:#ebd8ab; stroke:none;" d="M9 34L10 35L9 34z"/>
<path style="fill:#ddbc70; stroke:none;" d="M23 34L24 35L23 34z"/>
<path style="fill:#ebd8ab; stroke:none;" d="M27.6667 34.3333L28.3333 34.6667L27.6667 34.3333M71 34L72 48L73 48L71 34z"/>
<path style="fill:#ddbc70; stroke:none;" d="M76 34L77 35L76 34M89 34L90 35L89 34z"/>
<path style="fill:#ebd8ab; stroke:none;" d="M11 35L12 36L11 35z"/>
<path style="fill:#ddbc70; stroke:none;" d="M12 35L13 36L12 35M20 35L21 36L20 35z"/>
<path style="fill:#ebd8ab; stroke:none;" d="M21 35L22 36L21 35z"/>
<path style="fill:#afb1b3; stroke:none;" d="M27 35C27 47.2042 27.8941 54.0254 40 59L33 41L50 50.7978L67 41L59 59C72.439 55.1285 72 47.1941 72 35L50 43.0748L27 35z"/>
<path style="fill:#ebd8ab; stroke:none;" d="M33.6667 35.3333L34.3333 35.6667L33.6667 35.3333M65.6667 35.3333L66.3333 35.6667L65.6667 35.3333z"/>
<path style="fill:#ddbc70; stroke:none;" d="M78 35L79 36L78 35M87 35L88 36L87 35z"/>
<path style="fill:#ebd8ab; stroke:none;" d="M88 35L89 36L88 35M15 36L15 37L19 37L15 36M37 36L38 37L37 36M62 36L63 37L62 36M81 36L81 37L85 37L81 36M39 37L40 38L39 37M41 38L42 39L41 38M58 38L59 39L58 38M56 39L57 40L56 39M44 40L45 41L44 40M55 40L56 41L55 40M33 41L34 42L33 41M45 41L46 42L45 41M65.6667 41.3333L66.3333 41.6667L65.6667 41.3333M36 42L37 43L36 42M52 42L53 43L52 42M63 42L64 43L63 42M38 43L39 44L38 43M51 43L52 44L51 43M40 44L41 45L40 44M49.6667 44.3333L50.3333 44.6667L49.6667 44.3333M59 44L60 45L59 44M41 45L42 46L41 45M56 46L57 47L56 46M66 46L66 49L67 49L66 46M27 47L27 50L28 50L27 47M44 47L45 48L44 47M55 47L56 48L55 47M33 48L34 49L33 48M45 48L46 49L45 48M54 48L55 49L54 48M46 49L47 50L46 49M53 49L54 50L53 49M34 50L35 51L34 50M47 50L48 51L47 50M52 50L53 51L52 50M28 51L29 52L28 51M35 51L36 52L35 51M48 51L49 52L48 51M51 51L52 52L51 51M64 51L65 52L64 51M71 51L72 52L71 51M36 52L37 53L36 52M49.6667 52.3333L50.3333 52.6667L49.6667 52.3333M63 52L64 53L63 52M29 53L30 54L29 53M37 53L38 54L37 53M30 54L31 55L30 54M38 54L39 55L38 54M39 55L40 56L39 55M60 55L61 56L60 55M67 55L68 56L67 55M34 56L35 57L34 56M65 56L66 57L65 56M36 57L37 58L36 57M59 57L60 58L59 57M63 57L64 58L63 57M38 58L39 59L38 58M40.3333 58.6667L40.6667 59.3333L40.3333 58.6667M61 58L62 59L61 58M59 59L60 60L59 59M35 60L36 61L35 60M64 60L65 61L64 60z"/>
<path style="fill:#cc9c2a; stroke:none;" d="M35 61C35.7652 64.0958 35.9327 68.0256 38.4336 70.2971C46.9572 78.0385 63.8653 72.4076 64 61L63 61C54.7063 71.6222 44.1784 67.7851 35 61z"/>
<path style="fill:#ddbc70; stroke:none;" d="M36 61L37 62L36 61M64 61L65 62L64 61M35 62L35 66L36 66L35 62M37 62L38 63L37 62z"/>
<path style="fill:#ebd8ab; stroke:none;" d="M64 62L64 66L65 66L64 62M38 63L39 64L38 63z"/>
<path style="fill:#ddbc70; stroke:none;" d="M61 63L62 64L61 63z"/>
<path style="fill:#ebd8ab; stroke:none;" d="M60 64L61 65L60 64z"/>
<path style="fill:#ddbc70; stroke:none;" d="M39 65L40 66L39 65z"/>
<path style="fill:#ebd8ab; stroke:none;" d="M59 65L60 66L59 65M35 66L36 67L35 66M41 66L42 67L41 66z"/>
<path style="fill:#ddbc70; stroke:none;" d="M58 66L59 67L58 66M43 67L43 68L48 68L43 67M52 67L52 68L57 68L52 67M36 68L37 69L36 68z"/>
<path style="fill:#ebd8ab; stroke:none;" d="M63 68L64 69L63 68z"/>
<path style="fill:#ddbc70; stroke:none;" d="M62 69L63 70L62 69z"/>
<path style="fill:#ebd8ab; stroke:none;" d="M37 70L38 71L37 70z"/>
<path style="fill:#ddbc70; stroke:none;" d="M61 70L62 71L61 70M39 71L40 72L39 71z"/>
<path style="fill:#ebd8ab; stroke:none;" d="M60 71L61 72L60 71M41 72L42 73L41 72z"/>
<path style="fill:#ddbc70; stroke:none;" d="M42 72L43 73L42 72M47 72L47 73L52 73L47 72M56.6667 72.3333L57.3333 72.6667L56.6667 72.3333z"/>
<path style="fill:#ebd8ab; stroke:none;" d="M58 72L59 73L58 72z"/>
</svg>
